<svg width="491" height="113" viewBox="0 0 491 113" fill="none" xmlns="http://www.w3.org/2000/svg">
<g filter="url(#filter0_d_9_66)">
<path d="M42.576 92.016C56.016 92.016 64.592 85.488 64.592 75.248C64.592 67.696 60.88 64.496 47.056 59.888L35.28 56.048C25.168 52.848 19.408 46.32 19.408 38.384C19.408 27.632 28.112 20.592 41.296 20.592C52.56 20.592 60.752 25.328 66.384 35.056L75.344 30.448C68.816 19.056 56.4 11.888 41.296 11.888C22.992 11.888 8.656 23.28 8.656 40.176C8.656 53.744 18 61.936 31.568 66.16L46.288 70.768C51.152 72.304 53.328 73.84 53.328 76.272C53.328 79.728 50.128 82.672 42.064 82.672C33.232 82.672 26.576 78.576 23.376 72.048L14.928 76.912C20.304 86.512 30.672 92.016 42.576 92.016ZM42.576 103.92C61.904 103.92 78.544 93.296 78.544 75.248C78.544 62.96 71.76 55.152 54.992 49.776L39.632 44.784C35.664 43.504 33.104 41.456 33.104 38.256C33.104 34.8 35.92 31.856 41.808 31.856C47.824 31.856 52.816 35.696 55.632 40.688L63.952 36.336C58.704 27.376 51.536 23.152 41.296 23.152C29.52 23.152 22.224 29.04 22.224 38.384C22.224 45.424 27.344 50.928 36.304 53.744L48.08 57.584C63.056 62.448 67.408 66.544 67.408 75.248C67.408 86.896 57.552 94.576 42.576 94.576C29.904 94.576 18.256 88.432 12.496 78.32L4.56 82.8C10.832 95.728 25.296 103.92 42.576 103.92ZM121.948 103.92C133.724 103.92 143.836 99.952 150.364 91.632L143.196 86.512L142.172 87.664C137.82 92.528 132.06 95.984 121.948 95.984C105.308 95.984 94.3 85.36 94.3 69.104C94.3 53.616 105.18 42.48 120.156 42.48C134.108 42.48 144.22 52.848 144.86 67.696V71.152H106.46V68.72H142.044V68.08C141.404 54.512 132.444 45.04 120.156 45.04C106.588 45.04 97.116 55.024 97.116 69.104C97.116 83.952 106.716 93.424 121.948 93.424C130.652 93.424 135.644 90.992 140.124 85.872L140.892 84.976L134.492 80.496C131.292 83.568 127.196 85.104 122.46 85.104C117.724 85.104 110.94 84.464 107.996 77.424H153.308C153.948 74.736 154.204 72.048 154.204 69.232C154.204 49.392 139.996 34.544 120.156 34.544C99.548 34.544 84.956 49.648 84.956 69.104C84.956 88.688 99.164 103.92 121.948 103.92ZM107.484 62.32C109.66 55.792 115.42 52.976 120.412 52.976C125.66 52.976 130.78 55.408 132.828 62.32H107.484ZM174.524 102V11.888H164.156V102H174.524ZM187.708 102V11.888H177.34V102H187.708ZM211.399 102V11.888H201.031V102H211.399ZM224.583 102V11.888H214.215V102H224.583ZM337.49 36.464H327.25L306.258 74.992L304.85 72.432L324.306 36.464H314.322L299.986 63.344L284.242 33.264L268.114 63.472L254.162 36.464H243.666L267.218 81.52L284.114 49.776L306.77 93.296L337.49 36.464ZM283.858 71.92L300.626 104.56L305.234 95.984L284.114 55.28L267.218 87.024L240.722 36.464H230.994L266.578 104.56L283.858 71.92ZM354.929 30.576C363.249 30.576 370.161 23.664 370.161 15.472C370.161 7.28 363.121 0.367996 354.929 0.367996C347.121 0.367996 339.825 6.63999 339.825 15.472C339.825 24.176 346.737 30.576 354.929 30.576ZM354.929 24.816C349.809 24.816 345.841 20.72 345.841 15.472C345.841 10.352 349.937 6.128 354.929 6.128C359.921 6.128 364.145 10.48 364.145 15.472C364.145 20.464 359.921 24.816 354.929 24.816ZM354.929 22.512C358.385 22.512 361.585 19.184 361.585 15.472C361.585 11.76 358.385 8.432 354.929 8.432C351.345 8.432 348.401 11.632 348.401 15.472C348.401 19.44 351.217 22.512 354.929 22.512ZM353.649 102V36.464H343.281V102H353.649ZM366.833 102V36.464H356.465V102H366.833ZM390.524 102V11.888H380.156V102H390.524ZM403.708 102V11.888H393.34V102H403.708ZM464.007 41.456C458.887 36.336 451.975 34.544 446.855 34.544C427.271 34.544 413.831 50.672 413.831 69.744C413.831 87.792 426.759 103.92 446.215 103.92C451.847 103.92 458.887 102 464.007 97.136V102H473.863V11.888H464.007V41.456ZM476.679 102H486.407V11.888H476.679V102ZM463.495 89.2C458.631 92.912 454.151 94.576 448.135 94.576C433.927 94.576 423.943 83.952 423.943 68.72C423.943 54.256 433.799 43.76 447.495 43.76C454.151 43.76 459.527 45.68 464.007 49.52V52.592C459.655 48.368 454.279 46.32 447.495 46.32C435.463 46.32 426.759 55.792 426.759 68.72C426.759 82.416 435.591 92.016 448.135 92.016C455.303 92.016 459.783 89.456 464.007 85.872V88.816L463.495 89.2ZM464.647 69.232C464.647 76.912 458.631 82.8 450.823 82.8C442.887 82.8 436.871 76.912 436.871 69.232C436.871 61.552 442.887 55.664 450.823 55.664C458.631 55.664 464.647 61.552 464.647 69.232Z" fill="white"/>
</g>
<defs>
<filter id="filter0_d_9_66" x="0.560059" y="0.367996" width="489.847" height="112.192" filterUnits="userSpaceOnUse" color-interpolation-filters="sRGB">
<feFlood flood-opacity="0" result="BackgroundImageFix"/>
<feColorMatrix in="SourceAlpha" type="matrix" values="0 0 0 0 0 0 0 0 0 0 0 0 0 0 0 0 0 0 127 0" result="hardAlpha"/>
<feOffset dy="4"/>
<feGaussianBlur stdDeviation="2"/>
<feComposite in2="hardAlpha" operator="out"/>
<feColorMatrix type="matrix" values="0 0 0 0 0 0 0 0 0 0 0 0 0 0 0 0 0 0 0.25 0"/>
<feBlend mode="normal" in2="BackgroundImageFix" result="effect1_dropShadow_9_66"/>
<feBlend mode="normal" in="SourceGraphic" in2="effect1_dropShadow_9_66" result="shape"/>
</filter>
</defs>
</svg>
